<svg id="_x33_0" enable-background="new 0 0 64 64" height="512" viewBox="0 0 64 64" width="512" xmlns="http://www.w3.org/2000/svg"><g><g><g><path d="m28 62h-25c-.55 0-1-.45-1-1v-38c0-.55.45-1 1-1h9v4h-6v26l6 6h7.99.01z" fill="#f0d0b4"/></g><g><path d="m28 26h-6v-4h3.03l1.9 1.9 1.03-1.04c.47-.46 1.09-.71 1.72-.71.31 0 .63.06.93.19.84.35 1.39 1.17 1.39 2.09v1.57 24h-4z" fill="#f0d0b4"/></g><g><path d="m28 56h22v6h-22z" fill="#b4dd7f"/></g><g><path d="m50 50v6h-22v-6h4z" fill="#ff826e"/></g><g><path d="m54 50v12h-4v-6-6z" fill="#ffeaa7"/></g><g><path d="m62 54v4c0 2.21-1.79 4-4 4h-4v-12h4c2.21 0 4 1.79 4 4z" fill="#aab2bd"/></g><g><path d="m28 56v6l-8-4h-.01l-1.1-.55c-.54-.28-.89-.84-.89-1.45s.35-1.17.89-1.45l9.11-4.55z" fill="#aab2bd"/></g><g><path d="m28 26v24l-9.11 4.55c-.54.28-.89.84-.89 1.45s.35 1.17.89 1.45l1.1.55h-7.99v-6h-6v-26h6 10z" fill="#e6e9ed"/></g><g><path d="m12 52v6l-6-6z" fill="#b4dd7f"/></g><g><path d="m10 42h6v6h-6z" fill="#ff826e"/></g><g><path d="m10 32h6v6h-6z" fill="#ff826e"/></g><g><path d="m13 22h9v4h-10v-4z" fill="#b4dd7f"/></g><g><path d="m50 38c-2.21 0-4 1.79-4 4v3c0 .55-.45 1-1 1h-2c-.55 0-1-.45-1-1v-3c0-2.62 1.26-4.94 3.2-6.4 1.1 1.46 2.84 2.4 4.8 2.4z" fill="#e6e9ed"/></g><g><path d="m58 42v3c0 .55-.45 1-1 1h-2c-.55 0-1-.45-1-1v-3c0-1.1-.45-2.1-1.17-2.83-.73-.72-1.73-1.17-2.83-1.17 1.96 0 3.7-.94 4.8-2.4 1.94 1.46 3.2 3.78 3.2 6.4z" fill="#e6e9ed"/></g><g><path d="m50 26c-.14 0-.28 0-.42.02-2 .13-3.73 1.25-4.71 2.87-.55.9-.87 1.97-.87 3.11 0 1.35.45 2.6 1.2 3.6 1.1 1.46 2.84 2.4 4.8 2.4s3.7-.94 4.8-2.4c.75-1 1.2-2.25 1.2-3.6 0-3.31-2.69-6-6-6zm0 8c-1.1 0-2-.9-2-2s.9-2 2-2 2 .9 2 2-.9 2-2 2z" fill="#fcd770"/></g><g><path d="m24.1 21.07.93.93h-3.03-9l9-7v1h1.53c.94 0 1.79.57 2.15 1.44.37.88.17 1.89-.51 2.56z" fill="#aab2bd"/></g><g><path d="m49.58 26.01v.01c-2 .13-3.73 1.25-4.71 2.87l-3.8-4.99 2.83-2.83-1.07-1.07c-.45-.45-.69-1.04-.69-1.65 0-.31.06-.62.18-.91.36-.87 1.21-1.44 2.16-1.44h1.52z" fill="#aab2bd"/></g><g><path d="m34 20c3.31 0 6-2.69 6-6s-2.69-6-6-6-6 2.69-6 6 2.69 6 6 6zm8.32-9.44c.36.87 1.21 1.44 2.15 1.44h1.53v4h-1.52c-.95 0-1.8.57-2.16 1.44-.12.29-.18.6-.18.91 0 .61.24 1.2.69 1.65l1.07 1.07-2.83 2.83-1.1-1.11c-.65-.65-1.64-.85-2.49-.49-.9.37-1.48 1.25-1.48 2.22v1.48h-4v-1.57c0-.92-.55-1.74-1.39-2.09-.3-.13-.62-.19-.93-.19-.63 0-1.25.25-1.72.71l-1.03 1.04-1.9-1.9-.93-.93 1.07-1.07c.68-.67.88-1.68.51-2.56-.36-.87-1.21-1.44-2.15-1.44h-1.53v-1-3h1.57c.92 0 1.74-.55 2.09-1.39.13-.3.19-.62.19-.93 0-.63-.25-1.25-.71-1.72l-1.04-1.03 2.83-2.83 1.07 1.07c.67.68 1.68.88 2.56.51.87-.36 1.44-1.21 1.44-2.15v-1.53h4v1.57c0 .92.55 1.74 1.39 2.09.3.13.62.19.93.19.63 0 1.25-.25 1.72-.71l1.03-1.04 2.83 2.83-1.07 1.07c-.68.67-.88 1.68-.51 2.56z" fill="#ffc729"/></g><g><path d="m34 8c3.31 0 6 2.69 6 6s-2.69 6-6 6-6-2.69-6-6 2.69-6 6-6zm2 6c0-1.1-.9-2-2-2s-2 .9-2 2 .9 2 2 2 2-.9 2-2z" fill="#fcd770"/></g></g><g><path d="m34 17c1.654 0 3-1.346 3-3s-1.346-3-3-3-3 1.346-3 3 1.346 3 3 3zm0-4c.551 0 1 .448 1 1s-.449 1-1 1-1-.448-1-1 .449-1 1-1z"/><path d="m34 21c3.86 0 7-3.141 7-7s-3.14-7-7-7-7 3.141-7 7 3.14 7 7 7zm0-12c2.757 0 5 2.243 5 5s-2.243 5-5 5-5-2.243-5-5 2.243-5 5-5z"/><path d="m47 32c0 1.654 1.346 3 3 3s3-1.346 3-3-1.346-3-3-3-3 1.346-3 3zm4 0c0 .552-.449 1-1 1s-1-.448-1-1 .449-1 1-1 1 .448 1 1z"/><path d="m58 49h-25v-22h4v-2.476c0-.571.34-1.082.868-1.302.477-.2 1.025-.092 1.392.276l1.057 1.062 3.373 4.429c-.438.914-.69 1.933-.69 3.011 0 1.234.324 2.393.887 3.401-1.842 1.701-2.887 4.056-2.887 6.599v3c0 1.103.897 2 2 2h2c1.103 0 2-.897 2-2v-3c0-1.654 1.346-3 3-3s3 1.346 3 3v3c0 1.103.897 2 2 2h2c1.103 0 2-.897 2-2v-3c0-2.543-1.045-4.899-2.887-6.599.563-1.008.887-2.167.887-3.401 0-3.764-2.99-6.836-6.719-6.986l-3.281-9.187v-4.827h-2.526c-.541 0-1.024-.322-1.232-.821-.211-.508-.097-1.086.293-1.475l1.78-1.773-4.248-4.247-1.739 1.748c-.408.41-1.017.532-1.55.309-.472-.198-.778-.657-.778-1.169v-2.572h-6v2.525c0 .541-.322 1.024-.821 1.232-.509.21-1.087.098-1.475-.292l-1.772-1.782-4.248 4.247 1.747 1.741c.41.407.531 1.017.309 1.55-.197.473-.656.779-1.167.779h-2.573v3.511l-8.343 6.489h-9.657c-1.103 0-2 .897-2 2v38c0 1.103.897 2 2 2h55c2.757 0 5-2.243 5-5v-4c0-2.757-2.243-5-5-5zm-47 6.586-2.586-2.586h2.586zm-4-4.586v-24h20v22.382l-8.553 4.276c-.892.447-1.447 1.344-1.447 2.342 0 .355.092.686.222 1h-4.222v-6zm14-28v2h-8v-2zm5.616 2h-3.616v-2h1.615zm22.384 30h-20v-4h20zm-29.658 1.553c-.211-.106-.342-.318-.342-.553s.131-.447.342-.553l1.658-.829v2.764zm3.658-2.935 4-2v8.764l-4-2zm6 3.382h20v4h-20zm22-6h2v10h-2zm-22-2v-24h-1.753l1.424-1.432c.408-.41 1.017-.532 1.551-.309.473.198.778.656.778 1.169v24.572zm13.395-25.01 2.921-2.921-1.782-1.775c-.389-.388-.503-.964-.292-1.47.208-.501.693-.824 1.236-.824h.817l2.941 8.234c-1.309.342-2.467 1.051-3.36 2.013zm2.605 18.01v3h-2v-3c0-1.914.761-3.691 2.108-5.002.492.482 1.055.89 1.671 1.211-1.079.917-1.779 2.267-1.779 3.791zm12 0v3h-2v-3c0-1.524-.7-2.874-1.779-3.792.616-.321 1.179-.729 1.671-1.211 1.347 1.312 2.108 3.089 2.108 5.003zm-2-10c0 2.757-2.243 5-5 5s-5-2.243-5-5 2.243-5 5-5 5 2.243 5 5zm-32-19h.573c1.321 0 2.504-.788 3.014-2.008.536-1.288.244-2.755-.744-3.737l-.327-.326 1.413-1.413.359.361c.964.967 2.4 1.252 3.662.727 1.245-.519 2.05-1.728 2.05-3.079v-.525h2v.572c0 1.321.788 2.504 2.008 3.014 1.285.537 2.752.244 3.738-.743l.326-.327 1.413 1.413-.36.358c-.968.964-1.253 2.401-.728 3.661.518 1.246 1.727 2.052 3.077 2.052h.526v2h-.522c-1.353 0-2.563.807-3.083 2.054-.525 1.259-.24 2.693.727 3.657l.363.36-1.413 1.413-.395-.396c-.942-.947-2.348-1.227-3.579-.712-1.274.531-2.098 1.768-2.098 3.148v.476h-2v-.572c0-1.322-.789-2.506-2.008-3.014-1.287-.538-2.753-.244-3.738.743l-.326.327-1.413-1.413.36-.358c.968-.964 1.253-2.401.728-3.661-.518-1.246-1.727-2.052-3.077-2.052h-.526zm-1.943 4h2.469c.541 0 1.024.322 1.232.821.211.508.097 1.086-.293 1.475l-1.711 1.704h-6.84zm-18.057 44v-38h8v2h-6v27.414l6.586 6.586h8.178l4 2zm58-3c0 1.654-1.346 3-3 3h-3v-10h3c1.654 0 3 1.346 3 3z"/><path d="m17 42.969 2.64-2.2-1.28-1.537-2.122 1.768h-7.238v8h8zm-6 4.031v-4h2.838l-1.478 1.231 1.28 1.537 1.36-1.133v2.365z"/><path d="m17 32.969 2.64-2.2-1.28-1.537-2.122 1.768h-7.238v8h8zm-6 4.031v-4h2.838l-1.478 1.231 1.28 1.537 1.36-1.133v2.365z"/><path d="m19 47h6v2h-6z"/><path d="m19 43h6v2h-6z"/><path d="m19 37h6v2h-6z"/><path d="m19 33h6v2h-6z"/></g></g></svg>