<svg id="Capa_1" enable-background="new 0 0 512 512" height="512" viewBox="0 0 512 512" width="512" xmlns="http://www.w3.org/2000/svg"><g><g><path d="m18.986 320.096v159.386c0 12.42 10.052 22.489 22.451 22.489h293.468c12.399 0 22.451-10.069 22.451-22.489v-437.031c0-12.42-10.052-22.489-22.451-22.489h-293.468c-12.399 0-22.451 10.069-22.451 22.489v187.233" fill="#faf7f5"/><path d="m102.346 19.962-83.36 93.484h83.36z" fill="#ccf5fc"/><g><g><g><path d="m396.457 64.486h48.279v365.171h-48.279z" fill="#fff7bf"/><path d="m444.736 64.486h48.278v365.171h-48.278z" fill="#fff2a0"/></g><path d="m493.014 64.486h-96.557v-29.31c0-13.904 11.271-25.176 25.176-25.176h46.206c13.904 0 25.176 11.271 25.176 25.176v29.31z" fill="#ff7d97"/></g><g><path d="m493.014 429.658h-96.557l23.051 38.217h50.456z" fill="#faf7f5"/><path d="m419.508 467.875 17.695 34.125h15.066l17.695-34.125z" fill="#d1aee5"/></g></g><path d="m117.451 219.972c-.395 3.04-.6 6.139-.6 9.286 0 39.389 31.931 71.32 71.32 71.32s71.319-31.931 71.319-71.32c0-3.147-.205-6.247-.6-9.286z" fill="#ff7d97"/><path d="m208.703 160.939v-49.426h-41.064v49.426c-26.513 7.957-46.533 30.925-50.188 59.033h141.439c-3.654-28.108-23.674-51.076-50.187-59.033z" fill="#ccf5fc"/></g><g><g><path d="m334.905 9.962h-293.468c-17.894 0-32.451 14.574-32.451 32.489v187.232c0 5.523 4.477 10 10 10 5.522 0 10-4.477 10-10v-106.237h73.361c5.522 0 10-4.477 10-10v-83.484h222.559c6.865 0 12.45 5.602 12.45 12.489v437.031c0 6.886-5.585 12.488-12.45 12.488h-293.469c-6.865 0-12.451-5.602-12.451-12.488v-159.386c0-5.523-4.478-10-10-10s-10 4.477-10 10v159.386c0 17.914 14.558 32.488 32.451 32.488h293.469c17.893 0 32.45-14.574 32.45-32.488v-437.031c-.001-17.914-14.558-32.489-32.451-32.489zm-242.558 93.484h-51.046l51.046-57.244zm-63.362-16.24v-44.755c0-6.886 5.586-12.489 12.451-12.489h38.594z"/><path d="m10.67 280.26c2.349 3.587 6.963 5.23 11.063 4.055 3.866-1.108 6.743-4.509 7.194-8.505.466-4.133-1.8-8.236-5.524-10.07-3.807-1.876-8.488-1.092-11.493 1.9-3.333 3.319-3.846 8.715-1.24 12.62z"/><path d="m292.979 380.043h-70.064c-5.522 0-10 4.477-10 10s4.478 10 10 10h70.064c5.523 0 10-4.477 10-10s-4.477-10-10-10z"/><path d="m292.979 423.397h-70.064c-5.522 0-10 4.477-10 10s4.478 10 10 10h70.064c5.523 0 10-4.477 10-10s-4.477-10-10-10z"/><path d="m81.819 400.043h70.063c5.523 0 10-4.477 10-10s-4.477-10-10-10h-70.063c-5.522 0-10 4.477-10 10s4.478 10 10 10z"/><path d="m71.819 346.69c0 5.523 4.478 10 10 10h211.16c5.523 0 10-4.477 10-10s-4.477-10-10-10h-211.16c-5.522 0-10 4.477-10 10z"/><path d="m81.819 443.397h70.063c5.523 0 10-4.477 10-10s-4.477-10-10-10h-70.063c-5.522 0-10 4.477-10 10 0 5.522 4.478 10 10 10z"/><path d="m503.015 429.668c0-.003 0-394.492 0-394.492 0-19.396-15.78-35.176-35.176-35.176h-46.206c-19.396 0-35.176 15.78-35.176 35.176v394.444c0 .094 0 3.572 1.486 5.285l22.835 37.86 17.546 33.839c1.72 3.316 5.144 5.397 8.878 5.397h15.067c3.734 0 7.158-2.081 8.878-5.397l17.546-33.839 22.806-37.814c1.516-2.015 1.515-5.209 1.516-5.283zm-38.698 28.207h-39.163l-10.987-18.217h61.138zm-29.582-38.217h-28.278v-345.172h28.278zm20.001 0v-345.172h28.278v345.171h-28.278zm-48.279-384.482c0-8.368 6.808-15.176 15.176-15.176h46.206c8.368 0 15.176 6.808 15.176 15.176v19.311h-76.558zm39.733 456.824h-2.909l-7.324-14.125h17.558z"/><path d="m107.538 218.664c-.001.006-.002.012-.002.018-.454 3.484-.684 7.042-.684 10.577 0 44.84 36.479 81.32 81.319 81.32s81.319-36.48 81.319-81.32c0-3.534-.229-7.092-.684-10.577-.001-.006-.002-.012-.002-.018-3.801-29.181-23.143-53.888-50.101-64.798v-32.353h9.127c5.522 0 10-4.477 10-10s-4.478-10-10-10h-79.319c-5.522 0-10 4.477-10 10s4.478 10 10 10h9.128v32.353c-26.958 10.91-46.3 35.617-50.101 64.798zm80.633 71.914c-33.574 0-60.933-27.12-61.315-60.606h122.631c-.383 33.486-27.742 60.606-61.316 60.606zm10.532-169.065v39.426c0 4.416 2.896 8.309 7.126 9.578 19.35 5.807 34.374 20.723 40.569 39.455h-116.455c6.195-18.732 21.22-33.648 40.569-39.455 4.23-1.27 7.126-5.163 7.126-9.578v-39.426z"/></g></g></g></svg>