<svg id="Capa_1" enable-background="new 0 0 512 512" height="512" viewBox="0 0 512 512" width="512" xmlns="http://www.w3.org/2000/svg"><g><g><g><g><g><g><circle cx="256" cy="256" fill="#2fddd0" r="256"/></g></g></g></g></g><path d="m512 256c0-14.058-1.133-27.852-3.313-41.294l-35.187-35.187-14.043 25.25-144.77-144.769-117.375 99.594 70.344 70.344-13.3 48.062-98.481-98.481-117.375 99.594 61.182 61.182-17.495 10.513 160.87 160.87c4.287.214 8.603.322 12.943.322 141.385 0 256-114.615 256-256z" fill="#11bfae"/><g><path d="m241 129.568h30v120.432h-30z" fill="#fe6a16"/></g><g><path d="m256.12 129.568h14.88v120.432h-14.88z" fill="#f24500"/></g><g><path d="m429.813 350.808h-111.47v-30h81.47v-62.665h30z" fill="#f24500"/></g><g><g><path d="m356.126 179.519h117.374v99.594h-117.374z" fill="#e9edf5"/></g><g><g><path d="m375.271 196.816h79.083v25.458h-79.083z" fill="#bec3d2"/></g><g><path d="m375.271 236.358h79.083v25.458h-79.083z" fill="#bec3d2"/></g></g></g><g><path d="m193.657 350.808h-111.47v-92.665h30v62.665h81.47z" fill="#fe6a16"/></g><g><g><path d="m38.5 179.519h117.374v99.594h-117.374z" fill="#fff" transform="matrix(-1 0 0 -1 194.374 458.632)"/></g><g><g><path d="m57.646 196.816h79.083v25.458h-79.083z" fill="#dce1eb" transform="matrix(-1 0 0 -1 194.374 419.091)"/></g><g><path d="m57.646 236.358h79.083v25.458h-79.083z" fill="#dce1eb" transform="matrix(-1 0 0 -1 194.374 498.173)"/></g></g></g><g><g><path d="m197.313 60h117.374v99.594h-117.374z" fill="#fff" transform="matrix(-1 0 0 -1 512 219.594)"/></g><g><path d="m256.12 60h58.567v99.594h-58.567z" fill="#e9edf5"/></g><g><g><path d="m216.459 77.297h79.083v25.458h-79.083z" fill="#dce1eb" transform="matrix(-1 0 0 -1 512 180.053)"/></g><g><path d="m256.12 77.297h39.421v25.458h-39.421z" fill="#bec3d2"/></g><g><path d="m216.459 116.839h79.083v25.458h-79.083z" fill="#dce1eb" transform="matrix(-1 0 0 -1 512 259.135)"/></g><g><path d="m256.12 116.838h39.421v25.458h-39.421z" fill="#bec3d2"/></g></g></g><g><g><g><path d="m165.565 372.647h180.87v56.269h-180.87z" fill="#555a66"/></g><g><path d="m256.12 372.647h90.315v56.27h-90.315z" fill="#333940"/></g><g><path d="m165.565 320.705h180.87v56.269h-180.87z" fill="#636978"/></g><g><path d="m256.12 320.705h90.315v56.27h-90.315z" fill="#414952"/></g><g><path d="m165.565 268.763h180.87v56.269h-180.87z" fill="#555a66"/></g><g><path d="m256.12 268.763h90.315v56.27h-90.315z" fill="#333940"/></g><g><path d="m165.565 216.821h180.87v56.269h-180.87z" fill="#636978"/></g><g><path d="m256.12 216.821h90.315v56.269h-90.315z" fill="#414952"/></g></g><g><circle cx="189.569" cy="245.94" fill="#abf4f0" r="11.723"/></g><g><circle cx="225.297" cy="245.94" fill="#abf4f0" r="11.723"/></g><g><circle cx="189.569" cy="351.448" fill="#abf4f0" r="11.723"/></g><g><circle cx="225.297" cy="351.448" fill="#abf4f0" r="11.723"/></g></g></g></svg>