<svg height="512" viewBox="0 0 64 64" width="512" xmlns="http://www.w3.org/2000/svg"><g id="working-laptop-networking"><path d="m15 57v4h-10a2.006 2.006 0 0 1 -2-2v-4h5v2z" fill="#f5e0cd"/><circle cx="42" cy="44" fill="#ff5023" r="2"/><circle cx="22" cy="44" fill="#ff5023" r="2"/><path d="m21 18h22v3h-22z" fill="#3e3d42"/><path d="m18 12h28v6h-28z" fill="#c6c5ca"/><path d="m18 21h28v6h-28z" fill="#c6c5ca"/><path d="m21 9h22v3h-22z" fill="#3e3d42"/><path d="m18 3h28v6h-28z" fill="#c6c5ca"/><path d="m49 57v1h-14v-9h14v2z" fill="#9bfbff"/><path d="m13 58h16v3h-16z" fill="#e9e9ea"/><path d="m15 49h14v9h-14z" fill="#9bfbff"/><path d="m15 51v6h-7v-2h-5v-2a2.006 2.006 0 0 1 2-2z" fill="#ffda44"/><path d="m15 45h-8a2.006 2.006 0 0 1 2-2 1.956 1.956 0 0 1 .68.13 2.954 2.954 0 0 1 2.32-1.13 3 3 0 0 1 3 3z" fill="#806749"/><path d="m56 55v2h-7v-6h10a2.006 2.006 0 0 1 2 2v2z" fill="#91dc5a"/><path d="m61 55v4a2.006 2.006 0 0 1 -2 2h-10v-4h7v-2z" fill="#f5e0cd"/><path d="m51 44a2.006 2.006 0 0 1 2-2h4v3h-6z" fill="#ffda44"/><path d="m51 45h6a0 0 0 0 1 0 0v3a3 3 0 0 1 -3 3 3 3 0 0 1 -3-3v-3a0 0 0 0 1 0 0z" fill="#f5e0cd"/><path d="m47 61h-12v-3h14 2v3z" fill="#e9e9ea"/><path d="m7 45h6a0 0 0 0 1 0 0v3a3 3 0 0 1 -3 3 3 3 0 0 1 -3-3v-3a0 0 0 0 1 0 0z" fill="#f5e0cd"/><path d="m59 50h-1.556a3.959 3.959 0 0 0 .556-2v-6a1 1 0 0 0 -1-1h-4a3 3 0 0 0 -3 3v4a3.959 3.959 0 0 0 .556 2h-.556v-1a1 1 0 0 0 -1-1h-14a1 1 0 0 0 -1 1v12a1 1 0 0 0 1 1h24a3 3 0 0 0 3-3v-6a3 3 0 0 0 -3-3zm-6-7h3v1h-4a1 1 0 0 1 1-1zm-1 5v-2h4v2a2 2 0 0 1 -4 0zm7 4a1 1 0 0 1 1 1v1h-3v-1h-2v3h-5v-4zm-23-2h12v7h-12zm11 10h-11v-1h13v1zm12 0h-8v-2h5a1 1 0 0 0 1-1v-1h3v3a1 1 0 0 1 -1 1z"/><rect height="2" rx="1" width="2" x="41" y="52"/><path d="m29 48h-14a1 1 0 0 0 -1 1v1h-.556a3.959 3.959 0 0 0 .556-2v-2h1a1 1 0 0 0 1-1 4 4 0 0 0 -4-4 3.954 3.954 0 0 0 -2.652 1.022 3 3 0 0 0 -3.348 2.978v3a3.959 3.959 0 0 0 .556 2h-1.556a3 3 0 0 0 -3 3v6a3 3 0 0 0 3 3h24a1 1 0 0 0 1-1v-12a1 1 0 0 0 -1-1zm-13 2h12v7h-12zm-5.546-6.247a1.982 1.982 0 0 1 3.277.247h-3.571a1.02 1.02 0 0 0 .294-.247zm-2.454 4.247v-2h4v2a2 2 0 0 1 -4 0zm-3 4h9v4h-5v-3h-2v1h-3v-1a1 1 0 0 1 1-1zm-1 7v-3h3v1a1 1 0 0 0 1 1h4v2h-7a1 1 0 0 1 -1-1zm24 1h-14v-1h14z"/><rect height="2" rx="1" width="2" x="21" y="52"/><path d="m21 5h2v2h-2z"/><path d="m25 5h2v2h-2z"/><path d="m29 5h2v2h-2z"/><path d="m21 14h2v2h-2z"/><path d="m25 14h2v2h-2z"/><path d="m29 14h2v2h-2z"/><path d="m18 28h13v6h-9a1 1 0 0 0 -1 1v6.184a3 3 0 1 0 2 0v-5.184h18v5.184a3 3 0 1 0 2 0v-6.184a1 1 0 0 0 -1-1h-9v-6h13a1 1 0 0 0 1-1v-6a1 1 0 0 0 -1-1h-2v-1h2a1 1 0 0 0 1-1v-6a1 1 0 0 0 -1-1h-2v-1h2a1 1 0 0 0 1-1v-6a1 1 0 0 0 -1-1h-28a1 1 0 0 0 -1 1v6a1 1 0 0 0 1 1h2v1h-2a1 1 0 0 0 -1 1v6a1 1 0 0 0 1 1h2v1h-2a1 1 0 0 0 -1 1v6a1 1 0 0 0 1 1zm4 17a1 1 0 1 1 1-1 1 1 0 0 1 -1 1zm20 0a1 1 0 1 1 1-1 1 1 0 0 1 -1 1zm-23-41h26v4h-26zm3 6h20v1h-20zm-3 3h26v4h-26zm3 6h20v1h-20zm-3 3h26v4h-26z"/><path d="m21 23h2v2h-2z"/><path d="m25 23h2v2h-2z"/><path d="m29 23h2v2h-2z"/></g></svg>