<?xml version="1.0" encoding="iso-8859-1"?>
<!-- Generator: Adobe Illustrator 19.0.0, SVG Export Plug-In . SVG Version: 6.00 Build 0)  -->
<svg version="1.1" id="Capa_1" xmlns="http://www.w3.org/2000/svg" xmlns:xlink="http://www.w3.org/1999/xlink" x="0px" y="0px"
	 viewBox="0 0 389.12 389.12" style="enable-background:new 0 0 389.12 389.12;" xml:space="preserve">
<polygon style="fill:#26BBEC;" points="331.093,47.787 331.093,382.293 58.027,382.293 58.027,6.827 284.744,6.827 "/>
<path d="M331.093,389.12H58.027c-3.773,0-6.827-3.057-6.827-6.827V6.827C51.2,3.057,54.253,0,58.027,0h226.72
	c1.667,0,3.273,0.609,4.519,1.71l46.346,40.96c1.468,1.297,2.307,3.161,2.307,5.117v334.507
	C337.921,386.063,334.867,389.12,331.093,389.12z M64.853,375.467h259.413V50.864l-42.107-37.21H64.853V375.467z"/>
<polygon style="fill:#777777;" points="331.093,47.787 283.307,47.787 283.307,6.827 "/>
<path d="M331.093,54.613h-47.787c-3.773,0-6.827-3.057-6.827-6.827V6.827c0-2.666,1.553-5.086,3.973-6.204
	c2.434-1.106,5.28-0.71,7.293,1.021l47.787,40.96c2.173,1.86,2.953,4.873,1.959,7.554C336.507,52.833,333.954,54.613,331.093,54.613
	z M290.133,40.96h22.508l-22.508-19.29V40.96z"/>
<rect x="58.03" y="150.19" style="fill:#FBAD4A;" width="225.28" height="116.05"/>
<path d="M283.307,273.067H58.027c-3.773,0-6.827-3.057-6.827-6.827V150.187c0-3.77,3.053-6.827,6.827-6.827h225.28
	c3.773,0,6.827,3.057,6.827,6.827V266.24C290.133,270.01,287.08,273.067,283.307,273.067z M64.853,259.413H276.48v-102.4H64.853
	V259.413z"/>
<path d="M128.56,190.188c0.027,1.12,0.353,2.127,0.98,3.021c0.626,0.894,1.454,1.741,2.48,2.54s2.193,1.58,3.5,2.34
	c1.307,0.759,2.647,1.56,4.019,2.4s2.714,1.753,4.019,2.739c1.306,0.986,2.48,2.106,3.519,3.36s1.881,2.666,2.521,4.239
	c0.64,1.574,0.986,3.36,1.039,5.361v0.321c0,2.186-0.266,4.093-0.8,5.721c-0.534,1.628-1.241,3.026-2.12,4.2s-1.906,2.14-3.081,2.9
	c-1.172,0.759-2.406,1.367-3.7,1.819c-1.294,0.452-2.599,0.773-3.92,0.959s-2.567,0.294-3.739,0.321h-0.399
	c-2.266,0-4.253-0.227-5.96-0.679c-1.707-0.452-3.173-1.06-4.4-1.819s-2.246-1.633-3.06-2.62c-0.814-0.986-1.459-2.007-1.94-3.06
	s-0.826-2.099-1.039-3.14c-0.213-1.039-0.319-2.014-0.319-2.92c0-0.934,0.16-1.746,0.48-2.441s0.741-1.26,1.26-1.7
	c0.519-0.44,1.12-0.766,1.801-0.98s1.393-0.321,2.14-0.321c0.693,0,1.406,0.106,2.14,0.321s1.399,0.539,2,0.98
	c0.601,0.44,1.094,1,1.48,1.679s0.594,1.473,0.62,2.381c0.053,2,0.507,3.367,1.36,4.099s2.08,1.101,3.68,1.101
	c0.8-0.027,1.539-0.126,2.22-0.3s1.26-0.48,1.741-0.92s0.86-1.027,1.14-1.76c0.28-0.732,0.42-1.661,0.42-2.78
	c0-1.386-0.314-2.64-0.94-3.76s-1.447-2.161-2.459-3.12s-2.173-1.874-3.48-2.739c-1.307-0.865-2.64-1.734-4-2.599
	c-1.36-0.865-2.686-1.773-3.98-2.72c-1.294-0.947-2.459-1.98-3.5-3.099s-1.874-2.36-2.5-3.721c-0.626-1.36-0.954-2.906-0.98-4.64
	v-0.64c0.027-2.854,0.406-5.226,1.14-7.12s1.812-3.4,3.239-4.519c1.427-1.12,3.18-1.913,5.26-2.381c2.08-0.468,4.466-0.7,7.159-0.7
	h1.039c2.454,0,4.533,0.266,6.24,0.8s3.127,1.213,4.26,2.039s2.028,1.76,2.679,2.801c0.652,1.041,1.14,2.067,1.459,3.081
	c0.319,1.014,0.521,1.959,0.601,2.84s0.119,1.587,0.119,2.12c0,0.8-0.154,1.527-0.461,2.179c-0.307,0.652-0.72,1.207-1.241,1.661
	s-1.133,0.807-1.84,1.06c-0.707,0.253-1.473,0.381-2.301,0.381c-0.64,0-1.28-0.126-1.92-0.381s-1.213-0.58-1.72-0.98
	c-0.507-0.399-0.92-0.86-1.241-1.381s-0.48-1.046-0.48-1.58c0-2.186-0.393-3.707-1.179-4.56s-1.94-1.28-3.459-1.28
	c-0.72,0-1.42,0.039-2.099,0.119s-1.28,0.3-1.801,0.66s-0.934,0.913-1.241,1.661C128.707,187.778,128.56,188.827,128.56,190.188z"/>
<path d="M194.08,211.867c0.053,1.812,0.119,3.666,0.2,5.56c0.08,1.894,0.119,3.721,0.119,5.48v1.2c0,1.014-0.034,1.993-0.101,2.941
	c-0.067,0.947-0.273,1.801-0.62,2.56c-0.346,0.759-0.893,1.367-1.64,1.819s-1.799,0.679-3.159,0.679c-1.386,0-2.454-0.227-3.2-0.679
	s-1.3-1.053-1.661-1.801c-0.36-0.747-0.573-1.601-0.64-2.56s-0.101-1.947-0.101-2.959v-5.6h-16v5.6c0,1.014-0.034,2-0.101,2.959
	s-0.28,1.812-0.64,2.56s-0.913,1.347-1.661,1.801s-1.811,0.679-3.198,0.679s-2.454-0.227-3.2-0.679s-1.294-1.06-1.64-1.819
	s-0.546-1.613-0.601-2.56s-0.08-1.927-0.08-2.941v-1.2c0-0.826,0.007-1.707,0.02-2.64c0.014-0.934,0.034-1.881,0.06-2.84
	s0.053-1.913,0.08-2.86c0.027-0.947,0.053-1.847,0.08-2.7c1.333-4.64,2.734-9.341,4.2-14.1c1.466-4.76,2.867-9.474,4.2-14.14
	c0.266-0.986,0.587-1.94,0.959-2.86s0.867-1.72,1.48-2.4c0.613-0.679,1.399-1.227,2.36-1.64s2.186-0.62,3.68-0.62h4
	c1.466,0,2.686,0.207,3.661,0.62c0.975,0.413,1.766,0.959,2.381,1.64c0.614,0.681,1.101,1.48,1.459,2.4s0.686,1.874,0.98,2.86
	L194.08,211.867z M168.96,207.947h12.72l-5.92-21.439h-0.881L168.96,207.947z"/>
<path d="M213.28,190.188c0.027,1.12,0.353,2.127,0.98,3.021c0.626,0.894,1.454,1.741,2.48,2.54s2.193,1.58,3.5,2.34
	c1.307,0.759,2.647,1.56,4.019,2.4s2.714,1.753,4.019,2.739c1.306,0.986,2.48,2.106,3.519,3.36s1.881,2.666,2.521,4.239
	c0.64,1.574,0.986,3.36,1.039,5.361v0.321c0,2.186-0.266,4.093-0.8,5.721c-0.532,1.626-1.241,3.026-2.12,4.2s-1.906,2.14-3.081,2.9
	s-2.406,1.367-3.7,1.819c-1.294,0.452-2.599,0.773-3.92,0.959s-2.567,0.294-3.739,0.321H217.6c-2.266,0-4.253-0.227-5.96-0.679
	s-3.173-1.06-4.4-1.819s-2.246-1.633-3.06-2.62c-0.814-0.986-1.459-2.007-1.94-3.06s-0.826-2.099-1.039-3.14
	s-0.321-2.014-0.321-2.92c0-0.934,0.16-1.746,0.48-2.441s0.741-1.26,1.26-1.7s1.12-0.766,1.801-0.98s1.393-0.321,2.14-0.321
	c0.693,0,1.406,0.106,2.14,0.321s1.399,0.539,2,0.98c0.601,0.44,1.094,1,1.48,1.679s0.594,1.473,0.62,2.381
	c0.053,2,0.507,3.367,1.36,4.099s2.08,1.101,3.68,1.101c0.8-0.027,1.539-0.126,2.22-0.3s1.26-0.48,1.741-0.92s0.86-1.027,1.14-1.76
	s0.42-1.661,0.42-2.78c0-1.386-0.314-2.64-0.94-3.76s-1.447-2.161-2.459-3.12s-2.173-1.874-3.48-2.739
	c-1.307-0.865-2.64-1.734-4-2.599s-2.686-1.773-3.98-2.72c-1.294-0.947-2.459-1.98-3.5-3.099c-1.041-1.12-1.874-2.36-2.5-3.721
	s-0.954-2.906-0.98-4.64v-0.64c0.027-2.854,0.406-5.226,1.14-7.12s1.812-3.4,3.239-4.519c1.427-1.12,3.18-1.913,5.26-2.381
	s4.466-0.7,7.159-0.7h1.039c2.454,0,4.533,0.266,6.24,0.8s3.127,1.213,4.26,2.039s2.028,1.76,2.679,2.801
	c0.652,1.041,1.14,2.067,1.459,3.081c0.319,1.014,0.521,1.959,0.601,2.84s0.119,1.587,0.119,2.12c0,0.8-0.154,1.527-0.461,2.179
	c-0.307,0.652-0.72,1.207-1.241,1.661s-1.133,0.807-1.84,1.06c-0.707,0.253-1.473,0.381-2.301,0.381c-0.64,0-1.28-0.126-1.92-0.381
	s-1.213-0.58-1.72-0.98c-0.507-0.399-0.92-0.86-1.241-1.381c-0.319-0.521-0.48-1.046-0.48-1.58c0-2.186-0.393-3.707-1.179-4.56
	s-1.94-1.28-3.459-1.28c-0.72,0-1.42,0.039-2.099,0.119s-1.28,0.3-1.801,0.66s-0.934,0.913-1.241,1.661
	C213.427,187.778,213.28,188.827,213.28,190.188z"/>
<g>
</g>
<g>
</g>
<g>
</g>
<g>
</g>
<g>
</g>
<g>
</g>
<g>
</g>
<g>
</g>
<g>
</g>
<g>
</g>
<g>
</g>
<g>
</g>
<g>
</g>
<g>
</g>
<g>
</g>
</svg>
